<?xml version="1.0" encoding="utf-8"?>
<!-- Generator: Adobe Illustrator 16.0.0, SVG Export Plug-In . SVG Version: 6.00 Build 0)  -->
<!DOCTYPE svg PUBLIC "-//W3C//DTD SVG 1.1//EN" "http://www.w3.org/Graphics/SVG/1.1/DTD/svg11.dtd">
<svg version="1.1" id="Layer_1" xmlns="http://www.w3.org/2000/svg" xmlns:xlink="http://www.w3.org/1999/xlink" x="0px" y="0px"
	 width="317.77px" height="51.625px" viewBox="0 0 317.77 51.625" enable-background="new 0 0 317.77 51.625" xml:space="preserve">
<g>
	<path fill="#D19F45" d="M18.125,40.79v10.634c-0.75,0.077-1.406,0.13-1.969,0.159s-1.031,0.043-1.406,0.043
		c-3.678,0-6.738-1.079-9.18-3.237c-1.655-1.458-2.997-3.457-4.026-5.995S0,37.247,0,34.569c0-4.756,1.473-8.742,4.419-11.959
		c2.926-3.177,6.651-4.766,11.174-4.766c0.271,0,0.614,0.011,1.031,0.033c0.417,0.021,0.917,0.054,1.5,0.097v11.433
		c-3.708,0.23-5.562,2.094-5.562,5.591c0,1.575,0.458,2.958,1.375,4.15c0.938,1.134,2.052,1.7,3.344,1.7
		c0.125,0,0.255-0.004,0.391-0.014C17.807,40.823,17.958,40.809,18.125,40.79z"/>
	<path fill="#D19F45" d="M52.183,35.245c0,5-1.456,8.98-4.368,11.94s-6.816,4.44-11.712,4.44c-4.812,0-8.642-1.51-11.49-4.53
		c-2.828-3.04-4.242-7.12-4.242-12.24s1.445-9.23,4.336-12.331c2.87-3.12,6.679-4.68,11.427-4.68c5.001,0,8.926,1.55,11.775,4.65
		C50.758,25.594,52.183,29.844,52.183,35.245z M39.62,34.821c0-1.151-0.079-2.193-0.236-3.124s-0.383-1.728-0.677-2.39
		c-0.295-0.662-0.648-1.176-1.061-1.541c-0.413-0.365-0.874-0.547-1.385-0.547c-1.002,0-1.807,0.691-2.416,2.073
		c-0.609,1.209-0.913,3.023-0.913,5.442c0,2.381,0.304,4.195,0.913,5.442c0.609,1.382,1.424,2.073,2.445,2.073
		c0.962,0,1.758-0.681,2.386-2.044C39.306,38.689,39.62,36.894,39.62,34.821z"/>
	<path fill="#D19F45" d="M101.627,51.625H89.065V32.5c0-2.146-0.636-3.219-1.906-3.219c-1.896,0-2.844,1.75-2.844,5.25v17.094
		H71.752V32.969c0-2.292-0.708-3.438-2.125-3.438c-1.021,0-1.745,0.391-2.172,1.172c-0.427,0.781-0.641,2.151-0.641,4.109v16.812
		H54.252V17.844h12.562v1.75c0,1.375-0.062,2.667-0.188,3.875c2.233-3.75,5.144-5.625,8.734-5.625c4.028,0,7.012,2.333,8.954,7
		c1.69-4.667,4.487-7,8.39-7c2.942,0,5.238,1.051,6.887,3.152c1.356,1.754,2.035,4.396,2.035,7.925V51.625z"/>
	<path fill="#D19F45" d="M152.801,51.625h-12.562V32.5c0-2.146-0.636-3.219-1.906-3.219c-1.896,0-2.844,1.75-2.844,5.25v17.094
		h-12.562V32.969c0-2.292-0.708-3.438-2.125-3.438c-1.021,0-1.745,0.391-2.172,1.172c-0.427,0.781-0.641,2.151-0.641,4.109v16.812
		h-12.562V17.844h12.562v1.75c0,1.375-0.062,2.667-0.188,3.875c2.233-3.75,5.144-5.625,8.734-5.625c4.028,0,7.012,2.333,8.954,7
		c1.69-4.667,4.487-7,8.39-7c2.942,0,5.238,1.051,6.887,3.152c1.356,1.754,2.035,4.396,2.035,7.925V51.625z"/>
	<path fill="#D19F45" d="M170.193,7.375c0,1.979-0.719,3.688-2.156,5.125c-1.479,1.417-3.198,2.125-5.156,2.125
		c-2.021,0-3.75-0.719-5.188-2.156c-1.417-1.479-2.125-3.208-2.125-5.188c0-2.021,0.708-3.739,2.125-5.156
		C159.172,0.708,160.891,0,162.85,0c2.062,0,3.802,0.719,5.219,2.156C169.485,3.573,170.193,5.312,170.193,7.375z M169.131,51.625
		h-12.562V17.844h12.562V51.625z"/>
	<path fill="#D19F45" d="M187.978,51.625h-12.562V28h-3.562V17.844h3.562V7.906h12.562v9.938h4.156V28h-4.156V51.625z"/>
	<path fill="#FFFFFF" d="M224.505,51.625h-33.041l13.188-17.451c1.5-1.983,2.76-3.755,3.781-5.315
		c1.021-1.56,1.823-2.939,2.406-4.138c1.146-2.252,1.719-4.566,1.719-6.943c0-1.302-0.275-2.335-0.825-3.1s-1.301-1.147-2.252-1.147
		c-2.115,0-3.172,1.958-3.172,5.875c0,0.208,0.005,0.458,0.016,0.75c0.01,0.292,0.026,0.636,0.047,1.031h-12.563l-0.062-1.75
		c0-4.806,1.491-8.68,4.473-11.621c3.003-2.961,6.844-4.441,11.525-4.441c4.515,0,8.201,1.466,11.059,4.398
		c2.878,2.87,4.318,6.617,4.318,11.242c0,3.717-0.975,7.33-2.925,10.84c-0.985,1.755-2.263,3.598-3.833,5.528
		s-3.475,3.959-5.712,6.085c1.93-0.505,3.875-0.865,5.835-1.082c1.96-0.216,3.967-0.325,6.02-0.325V51.625z"/>
	<path fill="#FFFFFF" d="M261.015,27.817c0,7.282-1.5,13.076-4.5,17.381c-3,4.285-7.031,6.427-12.094,6.427
		c-5.479,0-9.771-2.163-12.875-6.488c-3.083-4.305-4.625-10.32-4.625-18.044c0-7.302,1.542-13.076,4.625-17.321
		c3.104-4.265,7.292-6.397,12.562-6.397c5.312,0,9.459,2.163,12.438,6.488S261.015,20.172,261.015,27.817z M248.14,27.729
		c0-8.527-1.406-12.792-4.219-12.792c-2.792,0-4.187,3.815-4.187,11.446c0,9.119,1.364,13.679,4.093,13.679
		c1.479,0,2.568-0.997,3.266-2.99S248.14,31.964,248.14,27.729z"/>
	<path fill="#FFFFFF" d="M278.949,51.625h-13.031V14.938h-5.219V3.375h18.25V51.625z"/>
	<path fill="#FFFFFF" d="M296.082,51.625h-14.031l11.625-25.535c0.875-1.885,1.817-3.743,2.828-5.576
		c1.01-1.833,2.141-3.691,3.391-5.576h-16.344V3.375h34.219L296.082,51.625z"/>
</g>
</svg>
