<?xml version="1.0" encoding="utf-8"?>
<!-- Generator: Adobe Illustrator 16.0.0, SVG Export Plug-In . SVG Version: 6.00 Build 0)  -->
<!DOCTYPE svg PUBLIC "-//W3C//DTD SVG 1.1//EN" "http://www.w3.org/Graphics/SVG/1.1/DTD/svg11.dtd">
<svg version="1.1" id="Layer_1" xmlns="http://www.w3.org/2000/svg" xmlns:xlink="http://www.w3.org/1999/xlink" x="0px" y="0px"
	 width="412px" height="412px" viewBox="50 50 412 412" enable-background="new 50 50 412 412" xml:space="preserve">
<path fill="#FFFFFF" d="M462,280.72V231.28l-46.414-16.48c-3.902-15.098-9.922-29.343-17.675-42.447l0.063-0.064l21.168-44.473
	l-34.961-34.96l-44.471,21.167l-0.064,0.064c-13.104-7.753-27.352-13.772-42.446-17.673L280.721,50H231.28L214.8,96.415
	c-15.096,3.9-29.343,9.919-42.447,17.675l-0.064-0.066l-44.473-21.167l-34.96,34.96l21.167,44.473l0.066,0.064
	c-7.755,13.104-13.774,27.352-17.675,42.447L50,231.28v49.439l46.415,16.48c3.9,15.096,9.921,29.343,17.675,42.446l-0.066,0.064
	l-21.167,44.471l34.96,34.961l44.473-21.168l0.064-0.063c13.104,7.753,27.352,13.771,42.447,17.675L231.28,462h49.441l16.479-46.414
	c15.096-3.902,29.343-9.922,42.446-17.675l0.064,0.063l44.471,21.168l34.961-34.961l-21.168-44.471l-0.063-0.064
	c7.753-13.104,13.771-27.352,17.675-42.446L462,280.72z M256,338.4c-45.509,0-82.4-36.893-82.4-82.4c0-45.509,36.891-82.4,82.4-82.4
	s82.4,36.891,82.4,82.4S301.509,338.4,256,338.4z"/>
</svg>
